<?xml version="1.0" encoding="UTF-8"?>
<svg version="1.1" xmlns="http://www.w3.org/2000/svg" width="541" height="462">
<path d="M0 0 C3.27959228 0.81989807 5.68753129 1.70071105 8.68359375 3.15234375 C9.60076172 3.59408936 10.51792969 4.03583496 11.46289062 4.4909668 C12.93532227 5.20700073 12.93532227 5.20700073 14.4375 5.9375 C16.51936859 6.94304516 18.60140349 7.94824608 20.68359375 8.953125 C21.73788574 9.46294922 22.79217773 9.97277344 23.87841797 10.49804688 C26.79925763 11.90341256 29.72719309 13.29202211 32.66015625 14.671875 C41.04992047 18.62156223 49.3384289 22.64963673 57.47290039 27.10229492 C62.92730671 30.04751092 68.55438514 32.52651666 74.23461914 35.00048828 C80.52543291 37.75234121 86.66217747 40.74688085 92.78100586 43.859375 C97.00878469 46.00825789 101.249059 48.13162312 105.4921875 50.25 C106.58358032 50.79527344 106.58358032 50.79527344 107.69702148 51.3515625 C109.46456466 52.2346079 111.23226544 53.11733781 113 54 C113.0154612 54.84325836 113.0154612 54.84325836 113.03123474 55.70355225 C113.14028731 61.60959219 113.25479108 67.5155094 113.37231445 73.42138672 C113.41535023 75.61895148 113.45704398 77.81654298 113.49731445 80.01416016 C113.55578558 83.19181341 113.61924907 86.36933587 113.68359375 89.546875 C113.70866249 90.9960733 113.70866249 90.9960733 113.73423767 92.47454834 C113.88003653 99.34641921 114.36067952 106.15696394 115 113 C115.65500488 113.23533447 116.31000977 113.47066895 116.98486328 113.71313477 C123.95214707 116.25552834 129.87340565 119.86123576 136 124 C136.99 124.66 137.98 125.32 139 126 C139 126.66 139 127.32 139 128 C139.5775 128.226875 140.155 128.45375 140.75 128.6875 C143.58974845 130.34401993 145.01499967 132.39468706 147 135 C147.639375 135.6084375 148.27875 136.216875 148.9375 136.84375 C160.13346183 148.54861919 163.39767942 166.34518729 163.3125 181.875 C163.30512817 183.46489746 163.30512817 183.46489746 163.29760742 185.08691406 C163.18737231 192.42913806 162.61779661 199.08153753 160 206 C159.61328125 207.04414063 159.2265625 208.08828125 158.828125 209.1640625 C156.71478961 214.52567266 154.46102322 219.38530238 151 224 C152.66330412 227.55809901 154.75039075 230.76334263 156.875 234.0625 C162.35106428 242.79560206 164.76301338 250.93356023 167 261 C186.305 261.495 186.305 261.495 206 262 C206 262.66 206 263.32 206 264 C206.66 264 207.32 264 208 264 C209.24814331 265.40678023 210.4230839 266.87879704 211.5625 268.375 C215.25797474 273.13504269 219.19413167 277.57211354 223.3125 281.96875 C225 284 225 284 225 286 C225.66 286 226.32 286 227 286 C228.875 288.046875 228.875 288.046875 231 290.75 C231.70125 291.63171875 232.4025 292.5134375 233.125 293.421875 C234.69307683 295.57798064 235.91326484 297.57748621 237 300 C237.66 300 238.32 300 239 300 C240.39325954 301.55240341 241.71380128 303.17029985 243 304.8125 C246.21745342 308.83947294 249.50038222 312.71057012 253 316.5 C266.34520885 331.03562654 266.34520885 331.03562654 268 336 C268.66 336 269.32 336 270 336 C270 336.66 270 337.32 270 338 C270.66 338 271.32 338 272 338 C273.58533702 339.71332754 275.09541215 341.49689047 276.5625 343.3125 C277.36816406 344.29863281 278.17382812 345.28476562 279.00390625 346.30078125 C281 349 281 349 282 352 C282.99 352.33 283.98 352.66 285 353 C285 353.66 285 354.32 285 355 C285.66 355 286.32 355 287 355 C288.6875 356.8125 288.6875 356.8125 290 359 C289.67 359.99 289.34 360.98 289 362 C252.61635704 362.02287246 216.23271535 362.04050133 179.84906669 362.05106533 C175.55684848 362.05231609 171.26463029 362.0536104 166.97241211 362.05493164 C166.11788322 362.05519395 165.26335432 362.05545626 164.38293061 362.05572652 C150.53365544 362.06008173 136.68438441 362.06796846 122.8351117 362.0771528 C108.63197161 362.08649348 94.4288337 362.09205649 80.22569066 362.09408849 C71.45660645 362.09546286 62.68753393 362.09980879 53.91845331 362.10791647 C47.91094885 362.11318903 41.90345046 362.11480312 35.89594384 362.11350138 C32.42628262 362.1128588 28.95664187 362.1138665 25.48698425 362.11920547 C21.73078275 362.12414707 17.97463214 362.12299651 14.21842957 362.12025452 C13.11435688 362.12316736 12.01028419 362.1260802 10.87275475 362.12908131 C9.36941833 362.12609474 9.36941833 362.12609474 7.83571148 362.12304783 C6.96805052 362.12342755 6.10038957 362.12380727 5.20643586 362.1241985 C3 362 3 362 0 361 C-0.33 358.03 -0.66 355.06 -1 352 C-25.255 351.505 -25.255 351.505 -50 351 C-50 270.48 -50 189.96 -50 107 C-33.83 106.67 -17.66 106.34 -1 106 C-0.67 71.02 -0.34 36.04 0 0 Z M26 42 C26 63.45 26 84.9 26 107 C46.13 107 66.26 107 87 107 C87.83964831 99.44316519 88.28169265 92.19986017 88.375 84.625 C88.43107422 82.86349609 88.43107422 82.86349609 88.48828125 81.06640625 C88.49988281 79.94363281 88.51148438 78.82085937 88.5234375 77.6640625 C88.54325684 76.64779785 88.56307617 75.6315332 88.58349609 74.58447266 C88.24637957 71.79242865 88.24637957 71.79242865 85.67480469 70.25390625 C84.79211914 69.84011719 83.90943359 69.42632812 83 69 C81.90429688 68.43023437 80.80859375 67.86046875 79.6796875 67.2734375 C78.41278585 66.63797146 77.14447225 66.00531508 75.875 65.375 C75.18341797 65.03017578 74.49183594 64.68535156 73.77929688 64.33007812 C67.5913934 61.26092208 61.35047151 58.30800325 55.09838867 55.37231445 C49.09285728 52.54398201 43.14893152 49.60710982 37.25 46.5625 C33.50091161 44.65198374 30.04888883 43.34962961 26 42 Z M-24 133 C-24 196.36 -24 259.72 -24 325 C-12.615 325.495 -12.615 325.495 -1 326 C0.5095766 322.98084679 0.13706379 319.86432484 0.12698364 316.55308533 C0.12932363 315.38776798 0.12932363 315.38776798 0.13171089 314.19890887 C0.13571667 311.58172429 0.13253288 308.96459717 0.12939453 306.34741211 C0.13074875 304.4768419 0.13252879 302.60627195 0.13470459 300.73570251 C0.13927618 295.64500045 0.13749056 290.55431857 0.1343255 285.46361613 C0.13180087 280.14693187 0.1341397 274.83024939 0.13571167 269.51356506 C0.1375329 260.58480518 0.1351281 251.65605355 0.13037109 242.72729492 C0.1249269 232.38898874 0.12669246 222.05070227 0.1321975 211.71239656 C0.13672796 202.85126575 0.13737956 193.9901409 0.13475883 185.12900931 C0.1331959 179.82994454 0.13300276 174.53088905 0.13629532 169.23182487 C0.13917312 164.25213887 0.13720004 159.27247841 0.13140106 154.29279518 C0.13007304 152.4597363 0.13046829 150.62667529 0.13266373 148.79361725 C0.13537355 146.30235897 0.13199621 143.81118392 0.12698364 141.31993103 C0.13032973 140.21742639 0.13032973 140.21742639 0.13374341 139.09264892 C0.4119811 135.76234856 0.4119811 135.76234856 -1 133 C-8.59 133 -16.18 133 -24 133 Z M26 133 C26 196.69 26 260.38 26 326 C78.56028385 329.62696819 78.56028385 329.62696819 128.4375 309.1875 C134.35984211 302.85573552 137.57093956 297.57436266 139 289 C122.17 289 105.34 289 88 289 C88 237.85 88 186.7 88 134 C69.51276717 124.75638358 46.66935466 133 26 133 Z M114 141 C112.76111215 143.47777569 112.87305488 145.12343739 112.87060547 147.89501953 C112.86745331 148.91854523 112.86430115 149.94207092 112.86105347 150.99661255 C112.8630777 152.11405853 112.86510193 153.23150452 112.8671875 154.3828125 C112.86623077 155.54384491 112.86527405 156.70487732 112.86428833 157.90109253 C112.86360566 160.37774713 112.86546593 162.85440349 112.86962891 165.33105469 C112.87487011 169.03324703 112.86974318 172.73531201 112.86328125 176.4375 C112.85945101 191.64889959 113.21806969 206.80855275 114 222 C115.28690173 221.37762833 116.57144728 220.75038312 117.85498047 220.12109375 C118.57056122 219.77232178 119.28614197 219.4235498 120.02340698 219.06420898 C127.99732257 214.77100723 132.9217524 205.15895385 136 197 C139.00911228 181.3381144 137.29983733 166.68042153 129 153 C124.90116652 147.73007124 119.77091728 144.25269883 114 141 Z M114 231 C114 241.23 114 251.46 114 262 C122.58 262 131.16 262 140 262 C137.25182725 249.63322263 132.19085356 241.55976046 122 234 C118.21804747 231.67610671 118.21804747 231.67610671 114 231 Z M166 289 C164.19610649 294.93477614 164.19610649 294.93477614 162.41113281 300.87524414 C160.8070226 306.05209499 158.77821642 310.35554689 156 315 C156 315.66 156 316.32 156 317 C155.34 317 154.68 317 154 317 C151.67980703 320.19026533 149.65356922 323.41726669 148 327 C147.34 327 146.68 327 146 327 C146 327.66 146 328.32 146 329 C145.4225 329.2475 144.845 329.495 144.25 329.75 C141.47917453 331.15453063 141.47917453 331.15453063 138 335 C169.35 335 200.7 335 233 335 C231.68 333.02 230.36 331.04 229 329 C228.34 329 227.68 329 227 329 C226.7525 328.44828125 226.505 327.8965625 226.25 327.328125 C224.75765526 324.54863293 222.96327477 322.2185293 221 319.75 C220.29875 318.85796875 219.5975 317.9659375 218.875 317.046875 C218.25625 316.37140625 217.6375 315.6959375 217 315 C216.34 315 215.68 315 215 315 C214.75507813 314.43539063 214.51015625 313.87078125 214.2578125 313.2890625 C212.773105 310.58707928 210.98033665 308.62705 208.875 306.375 C204.87557516 302.03313652 201.20439958 297.53102976 197.62890625 292.8359375 C197.09136719 292.23007812 196.55382812 291.62421875 196 291 C195.34 291 194.68 291 194 291 C194 290.34 194 289.68 194 289 C184.76 289 175.52 289 166 289 Z " fill="#7173C5" transform="translate(202,26)"/>
<path d="M0 0 C16.17 0 32.34 0 49 0 C50 1 50 1 50.11352539 3.31665039 C50.10828857 4.31688232 50.10305176 5.31711426 50.09765625 6.34765625 C50.09515869 7.31968994 50.09266113 8.29172363 50.09008789 9.29321289 C50.08098389 10.53707764 50.07187988 11.78094238 50.0625 13.0625 C50.041875 17.001875 50.02125 20.94125 50 25 C41.75 25 33.5 25 25 25 C25 88.69 25 152.38 25 218 C32.26 218 39.52 218 47 218 C47.99 218.33 48.98 218.66 50 219 C50 226.92 50 234.84 50 243 C33.5 243 17 243 0 243 C0 162.81 0 82.62 0 0 Z " fill="#FAFAFB" transform="translate(153,133)"/>
<path d="M0 0 C7.85005809 0.1246041 12.58047661 2.66600705 19 7 C19.64839844 7.40089844 20.29679687 7.80179688 20.96484375 8.21484375 C22.35167645 9.07957473 23.68426569 10.03051156 25 11 C25 11.66 25 12.32 25 13 C25.5775 13.226875 26.155 13.45375 26.75 13.6875 C29.58974845 15.34401993 31.01499967 17.39468706 33 20 C33.639375 20.6084375 34.27875 21.216875 34.9375 21.84375 C46.13346183 33.54861919 49.39767942 51.34518729 49.3125 66.875 C49.30512817 68.46489746 49.30512817 68.46489746 49.29760742 70.08691406 C49.18737231 77.42913806 48.61779661 84.08153753 46 91 C45.41992188 92.56621094 45.41992188 92.56621094 44.828125 94.1640625 C42.71478961 99.52567266 40.46102322 104.38530238 37 109 C38.66330412 112.55809901 40.75039075 115.76334263 42.875 119.0625 C46.47693954 124.78188923 49.08453624 130.51772433 51 137 C51.29583984 137.92619141 51.29583984 137.92619141 51.59765625 138.87109375 C52.16329473 141.86403522 52 144.95407723 52 148 C43.75 148 35.5 148 27 148 C26.67 146.35 26.34 144.7 26 143 C25.34 142.67 24.68 142.34 24 142 C23.443125 140.2984375 23.443125 140.2984375 22.875 138.5625 C19.26659676 128.51309697 11.33508142 121.66754071 2 117 C2 116.34 2 115.68 2 115 C1.01 115 0.02 115 -1 115 C-1 112.69 -1 110.38 -1 108 C0.32 108 1.64 108 3 108 C3 107.01 3 106.02 3 105 C4.42014536 104.05323643 5.84437065 103.11199218 7.2890625 102.203125 C14.71326801 96.98245081 19.9591232 87.36547205 21.65625 78.6171875 C23.0620178 63.8246763 22.20592264 50.80542068 14 38 C10.38173462 34.01926081 6.69361991 30.74210236 1.74609375 28.57421875 C-1.56690079 25.46858091 -1.44476573 24.57587481 -1.62109375 20.17578125 C-1.59054667 17.88740633 -1.52815414 15.59928262 -1.4375 13.3125 C-1.40946289 11.56356445 -1.40946289 11.56356445 -1.38085938 9.77929688 C-1.19589379 1.19589379 -1.19589379 1.19589379 0 0 Z " fill="#F5F5F5" transform="translate(316,141)"/>
<path d="M0 0 C8.25 0 16.5 0 25 0 C25 11.15114124 21.80224452 19.5832425 16 29 C15.34 29 14.68 29 14 29 C13.62875 30.0828125 13.62875 30.0828125 13.25 31.1875 C11.87730408 34.27606582 10.27646704 36.51011418 8 39 C7.34 39 6.68 39 6 39 C6 39.66 6 40.32 6 41 C0.76190476 46 0.76190476 46 -4 46 C-4 46.66 -4 47.32 -4 48 C-40.63 48 -77.26 48 -115 48 C-115 44.7 -115 41.4 -115 38 C-112.28177265 36.64088632 -110.11573133 36.85274718 -107.07250977 36.82641602 C-105.82683731 36.81292618 -104.58116486 36.79943634 -103.29774475 36.78553772 C-102.62932116 36.78047777 -101.96089756 36.77541782 -101.2722187 36.77020454 C-99.17284091 36.75376083 -97.07363974 36.73051423 -94.97434998 36.70530701 C-89.00423063 36.63467839 -83.03403346 36.57485625 -77.0637207 36.52319336 C-73.41083614 36.49110449 -69.758146 36.44974224 -66.10542107 36.40299797 C-64.72179666 36.38713613 -63.33812744 36.37474308 -61.95443916 36.36609077 C-44.3065564 36.25427898 -25.38974816 33.39384475 -12.0625 20.6875 C-6.27704217 14.4626403 -3.32992236 7.76981885 0 0 Z " fill="#F5F5F5" transform="translate(342,314)"/>
<path d="M0 0 C7.84712339 -0.02298214 15.69412951 -0.04288804 23.54125977 -0.05493164 C26.20957367 -0.05938761 28.87783373 -0.0667724 31.54614258 -0.07543945 C35.38623736 -0.08759844 39.22629569 -0.09324974 43.06640625 -0.09765625 C44.84961021 -0.10539818 44.84961021 -0.10539818 46.6688385 -0.11329651 C48.34978859 -0.11340981 48.34978859 -0.11340981 50.06469727 -0.11352539 C51.04398697 -0.115746 52.02327667 -0.11796661 53.03224182 -0.12025452 C56.37300439 0.01511426 59.69009987 0.52715712 63 1 C63 9.25 63 17.5 63 26 C42.21 25.67 21.42 25.34 0 25 C0 16.75 0 8.5 0 0 Z " fill="#FCFCFD" transform="translate(227,133)"/>
<path d="M0 0 C4.26866923 -0.04617551 8.53645483 -0.08591937 12.80517578 -0.10986328 C14.25409906 -0.11985586 15.70300251 -0.13345453 17.15185547 -0.15087891 C36.06562461 -0.37247372 36.06562461 -0.37247372 41.9375 4.375 C45.51207342 8.92445708 45.44273173 13.31260005 45 19 C43.90837801 23.00261395 42.24434804 25.40452157 39 28 C34.73422121 29.20177168 30.46976138 29.12925757 26.07421875 29.09765625 C24.95283257 29.09553383 24.95283257 29.09553383 23.80879211 29.09336853 C21.43498635 29.08779764 19.06127697 29.0752506 16.6875 29.0625 C15.07226699 29.05748123 13.4570325 29.05291899 11.84179688 29.04882812 C7.89446478 29.03869117 3.94733953 29.0191103 0 29 C0 19.43 0 9.86 0 0 Z " fill="#F4F4F4" transform="translate(238,275)"/>
<path d="M0 0 C4.434375 -0.0825 8.86875 -0.165 13.4375 -0.25 C15.50729126 -0.30462402 15.50729126 -0.30462402 17.61889648 -0.36035156 C24.77817027 -0.4245278 30.92922991 -0.12492994 37 4 C39 6.625 39 6.625 40 9 C40.495 9.99 40.495 9.99 41 11 C41.37381854 16.60727817 41.18490827 20.16772538 38 25 C35.06572212 27.97520556 33.50912316 28.93732417 29.3112793 29.45410156 C27.89876744 29.45347429 26.48614704 29.43122867 25.07421875 29.390625 C24.32662796 29.38496521 23.57903717 29.37930542 22.80879211 29.37347412 C20.43436089 29.35118468 18.06147062 29.30100656 15.6875 29.25 C14.07228751 29.22992519 12.45705123 29.21167613 10.84179688 29.1953125 C6.89346831 29.15475443 2.94844695 29.07646266 -1 29 C-0.67 19.43 -0.34 9.86 0 0 Z " fill="#F4F4F4" transform="translate(238,205)"/>
<path d="M0 0 C7.21712538 -0.48929664 7.21712538 -0.48929664 11 1.875 C13 4 13 4 13 6 C8.76037486 4.68773508 4.94766444 3.01806376 1 1 C1.00222061 1.75880966 1.00444122 2.51761932 1.00672913 3.29942322 C1.02706431 10.57612602 1.04213899 17.85281438 1.05181217 25.12953854 C1.05695292 28.86737756 1.06388239 32.60519245 1.07543945 36.34301758 C1.0865916 39.97409349 1.09234235 43.60514672 1.09487724 47.23623848 C1.09752867 49.24326961 1.10528361 51.25029207 1.11329651 53.25730896 C1.11403022 65.88037859 0.50607437 78.34814064 0 91 C19.8 91 39.6 91 60 91 C60 91.33 60 91.66 60 92 C40.53 92 21.06 92 1 92 C1 155.36 1 218.72 1 284 C0.67 284 0.34 284 0 284 C-0.1729573 258.33337331 -0.33919543 232.66670569 -0.5 207 C-0.50594854 206.05176157 -0.51189708 205.10352313 -0.51802588 204.1265502 C-0.83039474 154.27173493 -1.10157208 104.41847272 -1.0625 54.5625 C-1.06121597 52.91151306 -1.06121597 52.91151306 -1.05990601 51.22717285 C-1.04920067 38.48476197 -1.03035785 25.74237923 -1 13 C-1.66 13 -2.32 13 -3 13 C-3 12.34 -3 11.68 -3 11 C-2.34 11 -1.68 11 -1 11 C-0.67 7.37 -0.34 3.74 0 0 Z " fill="#5D5E8E" transform="translate(227,67)"/>
<path d="M0 0 C0.99 0.33 1.98 0.66 3 1 C2.125 4.875 2.125 4.875 1 6 C-1.16719586 6.10483132 -3.33784887 6.13856845 -5.50756836 6.14526367 C-6.18725174 6.14862228 -6.86693512 6.1519809 -7.56721497 6.15544128 C-9.82477624 6.16497745 -12.08226356 6.16689573 -14.33984375 6.16796875 C-15.90304089 6.17117951 -17.46623771 6.17454344 -19.0294342 6.17805481 C-22.31056414 6.18405278 -25.5916677 6.18589403 -28.87280273 6.18530273 C-33.08425444 6.18520108 -37.29553767 6.19885364 -41.50694942 6.21607494 C-44.73678875 6.2271751 -47.9665871 6.22922256 -51.19644356 6.22869301 C-52.7494318 6.22987612 -54.30242099 6.2343163 -55.85539055 6.24202538 C-58.02472723 6.25178539 -60.19369492 6.24896328 -62.36303711 6.24291992 C-63.59912216 6.24434494 -64.83520721 6.24576996 -66.10874939 6.24723816 C-69 6 -69 6 -71 4 C-35.855 3.505 -35.855 3.505 0 3 C0 2.01 0 1.02 0 0 Z " fill="#404062" transform="translate(434,357)"/>
<path d="M0 0 C19.8 0.495 19.8 0.495 40 1 C40 1.66 40 2.32 40 3 C40.66 3 41.32 3 42 3 C42 3.66 42 4.32 42 5 C8.835 4.505 8.835 4.505 -25 4 C-25 3.67 -25 3.34 -25 3 C-12.625 2.505 -12.625 2.505 0 2 C0 1.34 0 0.68 0 0 Z " fill="#65669F" transform="translate(368,287)"/>
<path d="M0 0 C7.59 0.33 15.18 0.66 23 1 C23 1.33 23 1.66 23 2 C21.21142578 2.09087891 21.21142578 2.09087891 19.38671875 2.18359375 C17.82030075 2.26801149 16.25389512 2.35265887 14.6875 2.4375 C13.90181641 2.47681641 13.11613281 2.51613281 12.30664062 2.55664062 C11.54931641 2.59853516 10.79199219 2.64042969 10.01171875 2.68359375 C9.31522217 2.72025146 8.61872559 2.75690918 7.90112305 2.79467773 C5.7783428 2.95581153 5.7783428 2.95581153 3 4 C2.01 3.505 2.01 3.505 1 3 C-0.48251264 2.9078512 -1.9691255 2.87806899 -3.45449829 2.87974548 C-4.39121872 2.87837082 -5.32793915 2.87699615 -6.29304504 2.87557983 C-7.32378647 2.87917511 -8.35452789 2.88277039 -9.41650391 2.88647461 C-11.04091148 2.88625557 -11.04091148 2.88625557 -12.69813538 2.8860321 C-16.29096453 2.88673085 -19.88374236 2.89452148 -23.4765625 2.90234375 C-25.96235119 2.90420807 -28.44814025 2.9056319 -30.93392944 2.90663147 C-36.81646397 2.91006435 -42.69897943 2.91795227 -48.58150613 2.92798096 C-55.93454246 2.94024508 -63.28758107 2.94562374 -70.640625 2.95117188 C-83.76042609 2.96190732 -96.88021188 2.97879114 -110 3 C-110 2.67 -110 2.34 -110 2 C-73.7 2 -37.4 2 0 2 C0 1.34 0 0.68 0 0 Z " fill="#7777B2" transform="translate(338,360)"/>
<path d="M0 0 C8 0 8 0 11 1.875 C13 4 13 4 13 6 C8.66208962 4.65731345 5.13574643 3.06787321 1 1 C1 22.45 1 43.9 1 66 C0.67 66 0.34 66 0 66 C0 44.22 0 22.44 0 0 Z " fill="#494A7A" transform="translate(227,67)"/>
<path d="M0 0 C4 0 4 0 5.72021484 1.53100586 C7.43337484 4.83607779 7.45944903 7.86443314 7.4765625 11.50390625 C7.49214203 12.22360092 7.50772156 12.94329559 7.52377319 13.68479919 C7.57117699 15.97735539 7.59901279 18.26960963 7.625 20.5625 C7.66154377 22.85874684 7.70220773 25.15482463 7.74765015 27.45091248 C7.77477756 28.87762045 7.7961717 30.30445165 7.81118774 31.7313385 C7.85911673 34.75568587 8.03562481 37.10687443 9 40 C8.0625 42.1875 8.0625 42.1875 7 44 C7 43.01 7 42.02 7 41 C4.36 41 1.72 41 -1 41 C-1 40.67 -1 40.34 -1 40 C0.98 40 2.96 40 5 40 C5 28.45 5 16.9 5 5 C3.02 4.01 1.04 3.02 -1 2 C-0.67 1.34 -0.34 0.68 0 0 Z " fill="#5C5C89" transform="translate(284,93)"/>
<path d="M0 0 C2.64 0.33 5.28 0.66 8 1 C4.125 3 4.125 3 3 3 C3.01047363 3.79696289 3.02094727 4.59392578 3.03173828 5.41503906 C3.07331772 9.02666062 3.09933261 12.63823179 3.125 16.25 C3.15013672 18.13138672 3.15013672 18.13138672 3.17578125 20.05078125 C3.18222656 21.25605469 3.18867188 22.46132812 3.1953125 23.703125 C3.20578613 24.81333008 3.21625977 25.92353516 3.22705078 27.06738281 C3.00468334 29.93950942 2.49281575 31.57223735 1 34 C0.17777446 29.70394268 -0.11770795 25.66033397 -0.09765625 21.2890625 C-0.09443359 20.04511719 -0.09121094 18.80117187 -0.08789062 17.51953125 C-0.07951172 16.23433594 -0.07113281 14.94914063 -0.0625 13.625 C-0.05798828 12.31660156 -0.05347656 11.00820312 -0.04882812 9.66015625 C-0.03707594 6.44005719 -0.02064543 3.2200523 0 0 Z " fill="#7675BD" transform="translate(313,139)"/>
<path d="M0 0 C2.52309229 1.07829634 5.04339541 2.16245705 7.5625 3.25 C8.26697266 3.55035156 8.97144531 3.85070312 9.69726562 4.16015625 C14.32740533 6.16583889 18.66104425 8.42285414 23 11 C23 14.3 23 17.6 23 21 C21 19 21 19 20.875 15.375 C20.91625 14.26125 20.9575 13.1475 21 12 C20.37351562 11.86722656 19.74703125 11.73445313 19.1015625 11.59765625 C18.28429687 11.42105469 17.46703125 11.24445313 16.625 11.0625 C15.81289063 10.88847656 15.00078125 10.71445313 14.1640625 10.53515625 C12 10 12 10 10 9 C10 8.34 10 7.68 10 7 C8.68 6.67 7.36 6.34 6 6 C6 5.34 6 4.68 6 4 C4.68 4 3.36 4 2 4 C2 3.34 2 2.68 2 2 C1.34 2 0.68 2 0 2 C0 1.34 0 0.68 0 0 Z " fill="#6465A0" transform="translate(292,69)"/>
<path d="M0 0 C0.99 0.33 1.98 0.66 3 1 C3 1.66 3 2.32 3 3 C3.66 3 4.32 3 5 3 C6.6875 4.8125 6.6875 4.8125 8 7 C7.67 7.99 7.34 8.98 7 10 C-3.56 9.67 -14.12 9.34 -25 9 C-25 8.67 -25 8.34 -25 8 C-15.76 7.67 -6.52 7.34 3 7 C3 6.01 3 5.02 3 4 C2.01 3.67 1.02 3.34 0 3 C0 2.01 0 1.02 0 0 Z " fill="#545684" transform="translate(484,378)"/>
<path d="M0 0 C3.88192126 3.76774711 7.79531881 7.62797789 11 12 C11 12.66 11 13.32 11 14 C8 14 8 14 6.5625 12.75 C6.046875 12.1725 5.53125 11.595 5 11 C4.29875 10.4225 3.5975 9.845 2.875 9.25 C0.39451307 6.27341569 0.29212517 3.79762727 0 0 Z " fill="#606099" transform="translate(473,364)"/>
<path d="M0 0 C0.33 0 0.66 0 1 0 C1.33 1.65 1.66 3.3 2 5 C6.42682491 6.0390378 10.78934632 6.31592951 15.3125 6.5625 C16.05306641 6.60568359 16.79363281 6.64886719 17.55664062 6.69335938 C19.37091464 6.79870432 21.1854355 6.89978316 23 7 C23 7.33 23 7.66 23 8 C19.72966072 8.19689005 16.45872059 8.38089008 13.1875 8.5625 C11.7943457 8.64661133 11.7943457 8.64661133 10.37304688 8.73242188 C9.48037109 8.78076172 8.58769531 8.82910156 7.66796875 8.87890625 C6.84578857 8.9260376 6.0236084 8.97316895 5.17651367 9.02172852 C3 9 3 9 0 8 C0 5.36 0 2.72 0 0 Z " fill="#6D6FAA" transform="translate(202,379)"/>
<path d="M0 0 C8.25 0 16.5 0 25 0 C25 0.33 25 0.66 25 1 C24.35450195 1.01981934 23.70900391 1.03963867 23.04394531 1.06005859 C20.11222779 1.15546328 17.18120768 1.26507971 14.25 1.375 C12.72632813 1.42140625 12.72632813 1.42140625 11.171875 1.46875 C10.1921875 1.50742187 9.2125 1.54609375 8.203125 1.5859375 C6.85202637 1.63306885 6.85202637 1.63306885 5.47363281 1.68115234 C2.87586865 2.01600035 1.20608897 2.6042984 -1 4 C-1.33 4.66 -1.66 5.32 -2 6 C-1.49396008 3.83125748 -1.00016187 2.00032373 0 0 Z " fill="#DADEE8" transform="translate(342,314)"/>
<path d="M0 0 C1.13865385 3.41596155 1.02524163 5.82462209 0.87890625 9.41796875 C0.83056641 10.67158203 0.78222656 11.92519531 0.73242188 13.21679688 C0.67634766 14.52712891 0.62027344 15.83746094 0.5625 17.1875 C0.50925765 18.5227663 0.4565174 19.85805272 0.40429688 21.19335938 C0.27447654 24.46247144 0.13950464 27.73128919 0 31 C-0.66 31 -1.32 31 -2 31 C-2.04939115 26.90661348 -2.08571501 22.81334202 -2.10986328 18.71972656 C-2.11992877 17.32679219 -2.13358234 15.93387898 -2.15087891 14.54101562 C-2.1751022 12.5404564 -2.18540814 10.53974385 -2.1953125 8.5390625 C-2.20578613 7.33459473 -2.21625977 6.13012695 -2.22705078 4.88916016 C-2 2 -2 2 0 0 Z " fill="#787ABE" transform="translate(315,259)"/>
<path d="M0 0 C2.31 0.33 4.62 0.66 7 1 C3.125 3 3.125 3 2 3 C1.67 10.59 1.34 18.18 1 26 C0.67 26 0.34 26 0 26 C0 17.42 0 8.84 0 0 Z " fill="#8F90B8" transform="translate(314,139)"/>
<path d="M0 0 C1.58628608 0.59637091 3.16892059 1.20245925 4.75 1.8125 C5.63171875 2.14894531 6.5134375 2.48539063 7.421875 2.83203125 C9.93039808 3.96846822 11.87279005 5.26542927 14 7 C6.25 7.125 6.25 7.125 4 6 C4 5.34 4 4.68 4 4 C2.68 3.34 1.36 2.68 0 2 C0 1.34 0 0.68 0 0 Z " fill="#6D6EAD" transform="translate(215,32)"/>
<path d="M0 0 C3.96 1.98 3.96 1.98 8 4 C8 7.3 8 10.6 8 14 C6 12 6 12 5.875 8.375 C5.91625 7.26125 5.9575 6.1475 6 5 C4.35 4.67 2.7 4.34 1 4 C0.67 2.68 0.34 1.36 0 0 Z " fill="#5F6194" transform="translate(307,76)"/>
<path d="M0 0 C1.98 0 3.96 0 6 0 C5.67 1.32 5.34 2.64 5 4 C5.99 4.33 6.98 4.66 8 5 C8.33 6.65 8.66 8.3 9 10 C8.34 9.67 7.68 9.34 7 9 C7 8.34 7 7.68 7 7 C6.34 7 5.68 7 5 7 C3.7109375 5.46875 3.7109375 5.46875 2.375 3.5 C1.70597656 2.52546875 1.70597656 2.52546875 1.0234375 1.53125 C0.68570312 1.0259375 0.34796875 0.520625 0 0 Z " fill="#575894" transform="translate(424,348)"/>
<path d="M0 0 C9.14634146 0.91463415 9.14634146 0.91463415 12 3 C13.25 5.125 13.25 5.125 14 7 C9.0276578 5.50829734 4.58154261 3.39542583 0 1 C0 0.67 0 0.34 0 0 Z " fill="#505088" transform="translate(267,86)"/>
<path d="M0 0 C3.98069267 2.87494471 6.43571997 5.82117329 9 10 C7.35 9.67 5.7 9.34 4 9 C3.67 7.35 3.34 5.7 3 4 C2.01 3.67 1.02 3.34 0 3 C0 2.01 0 1.02 0 0 Z " fill="#5E639C" transform="translate(448,336)"/>
<path d="M0 0 C6.93 0 13.86 0 21 0 C21 0.33 21 0.66 21 1 C19.21142578 1.09087891 19.21142578 1.09087891 17.38671875 1.18359375 C15.82030075 1.26801149 14.25389512 1.35265887 12.6875 1.4375 C11.90181641 1.47681641 11.11613281 1.51613281 10.30664062 1.55664062 C9.54931641 1.59853516 8.79199219 1.64042969 8.01171875 1.68359375 C7.31522217 1.72025146 6.61872559 1.75690918 5.90112305 1.79467773 C3.7783428 1.95581153 3.7783428 1.95581153 1 3 C0.67 2.01 0.34 1.02 0 0 Z " fill="#576691" transform="translate(340,361)"/>
<path d="M0 0 C3.77545388 1.09068668 6.47043472 1.9083091 9 5 C5.87822605 6.04059132 4.92916561 6.32284898 2 5 C0.75 2.4375 0.75 2.4375 0 0 Z " fill="#64649D" transform="translate(281,64)"/>
<path d="M0 0 C4 0 4 0 5.75 1.625 C7.30380397 4.57722754 7.22432841 6.70985003 7 10 C6.67 10 6.34 10 6 10 C5.773125 9.05125 5.54625 8.1025 5.3125 7.125 C4.30916286 3.80676612 4.30916286 3.80676612 1.375 2.625 C0.59125 2.41875 -0.1925 2.2125 -1 2 C-0.67 1.34 -0.34 0.68 0 0 Z " fill="#54548C" transform="translate(284,93)"/>
<path d="M0 0 C2.78211944 0.37596209 4.5879284 0.67318459 6.8125 2.4375 C8 4 8 4 8 6 C5 6 5 6 3.4375 4.5625 C2.963125 4.046875 2.48875 3.53125 2 3 C1.34 2.67 0.68 2.34 0 2 C0 1.34 0 0.68 0 0 Z " fill="#6868A5" transform="translate(476,372)"/>
<path d="M0 0 C2.71435596 0.93305986 3.78043163 1.62673377 5.25 4.125 C5.4975 4.74375 5.745 5.3625 6 6 C0.25 4.125 0.25 4.125 -2 3 C-2 2.34 -2 1.68 -2 1 C-1.34 0.67 -0.68 0.34 0 0 Z " fill="#595B8F" transform="translate(234,67)"/>
<path d="M0 0 C2.97 0.99 5.94 1.98 9 3 C8.01 3.66 7.02 4.32 6 5 C4.02 4.01 2.04 3.02 0 2 C0 1.34 0 0.68 0 0 Z " fill="#5D659A" transform="translate(272,60)"/>
<path d="M0 0 C2.64 0.99 5.28 1.98 8 3 C6.02 3.99 6.02 3.99 4 5 C2 3.625 2 3.625 0 2 C0 1.34 0 0.68 0 0 Z " fill="#5D5D99" transform="translate(215,32)"/>
<path d="M0 0 C1.98 1.65 3.96 3.3 6 5 C5.67 5.66 5.34 6.32 5 7 C2.525 6.01 2.525 6.01 0 5 C0 3.35 0 1.7 0 0 Z " fill="#4F4F8A" transform="translate(442,329)"/>
<path d="M0 0 C1.485 0.99 1.485 0.99 3 2 C3 2.66 3 3.32 3 4 C3.66 4 4.32 4 5 4 C5 4.66 5 5.32 5 6 C3.125 5.6875 3.125 5.6875 1 5 C0.34 4.01 -0.32 3.02 -1 2 C-0.67 1.34 -0.34 0.68 0 0 Z " fill="#5D5F90" transform="translate(424,308)"/>
</svg>
