<?xml version="1.0" encoding="UTF-8"?>
<svg version="1.1" xmlns="http://www.w3.org/2000/svg" width="541" height="462">
<path d="M0 0 C3.34576923 0.83644231 5.97333912 1.79920431 9.078125 3.22265625 C10.06594971 3.67455322 11.05377441 4.1264502 12.0715332 4.59204102 C13.64487427 5.31991821 13.64487427 5.31991821 15.25 6.0625 C16.33176514 6.56128662 17.41353027 7.06007324 18.52807617 7.57397461 C28.6763406 12.27539205 38.70251062 17.16090815 48.56640625 22.43359375 C57.07389658 26.97782161 65.587852 31.25932566 74.43652344 35.1015625 C82.11629883 38.4473408 89.52925896 42.20533788 97 46 C102.28 48.64 107.56 51.28 113 54 C113.33 73.47 113.66 92.94 114 113 C115.65 113.33 117.3 113.66 119 114 C126.02842566 117.30958778 132.96264084 121.08587045 139 126 C139 126.66 139 127.32 139 128 C139.57234375 128.23460937 140.1446875 128.46921875 140.734375 128.7109375 C151.59127102 134.88813696 158.70747091 151.46076254 162 163 C165.59493038 181.67496301 163.86040192 201.14362562 155 218 C154.4328125 218.825 153.865625 219.65 153.28125 220.5 C151.80119937 222.89198468 151.80119937 222.89198468 152.07421875 225.42578125 C153.24576183 228.68336307 154.91277035 231.29384872 156.8125 234.1875 C162.6760532 243.41431848 164.99437107 250.96904091 167 262 C179.87 262 192.74 262 206 262 C206 262.66 206 263.32 206 264 C206.66 264 207.32 264 208 264 C209.24814331 265.40678023 210.4230839 266.87879704 211.5625 268.375 C215.25797474 273.13504269 219.19413167 277.57211354 223.3125 281.96875 C225 284 225 284 225 286 C225.66 286 226.32 286 227 286 C228.875 288.046875 228.875 288.046875 231 290.75 C231.70125 291.63171875 232.4025 292.5134375 233.125 293.421875 C234.69307683 295.57798064 235.91326484 297.57748621 237 300 C237.66 300 238.32 300 239 300 C240.39325954 301.55240341 241.71380128 303.17029985 243 304.8125 C246.21745342 308.83947294 249.50038222 312.71057012 253 316.5 C257.2225991 321.0849126 261.19400497 325.82300439 265.08984375 330.6875 C266.89810118 332.96615487 266.89810118 332.96615487 268.75390625 334.6875 C270 336 270 336 270 338 C270.66 338 271.32 338 272 338 C273.58533702 339.71332754 275.09541215 341.49689047 276.5625 343.3125 C277.36816406 344.29863281 278.17382812 345.28476562 279.00390625 346.30078125 C281 349 281 349 282 352 C282.99 352.33 283.98 352.66 285 353 C285 353.66 285 354.32 285 355 C285.66 355 286.32 355 287 355 C288.6875 356.8125 288.6875 356.8125 290 359 C289.67 359.99 289.34 360.98 289 362 C193.63 361.67 98.26 361.34 0 361 C-0.495 356.05 -0.495 356.05 -1 351 C-2.32 351.33 -3.64 351.66 -5 352 C-19.85 351.67 -34.7 351.34 -50 351 C-50 270.48 -50 189.96 -50 107 C-33.83 107 -17.66 107 -1 107 C-0.67 71.69 -0.34 36.38 0 0 Z M26 42 C26 63.45 26 84.9 26 107 C36.044375 107.020625 46.08875 107.04125 56.4375 107.0625 C59.6130249 107.071604 62.7885498 107.08070801 66.06030273 107.09008789 C68.55973264 107.09300677 71.05916302 107.09555539 73.55859375 107.09765625 C74.87057739 107.10277222 76.18256104 107.10788818 77.53430176 107.11315918 C78.77264771 107.11328003 80.01099365 107.11340088 81.28686523 107.11352539 C82.90902199 107.11685631 82.90902199 107.11685631 84.56394958 107.12025452 C86.94797472 107.2758197 86.94797472 107.2758197 88 106 C88.29101818 101.19120084 88.31398413 96.3797519 88.35009766 91.56298828 C88.36666413 89.94109759 88.39396384 88.31928012 88.43212891 86.69775391 C88.48681853 84.36322045 88.50875656 82.03039969 88.5234375 79.6953125 C88.54610687 78.97022491 88.56877625 78.24513733 88.59213257 77.49807739 C88.63815296 75.20057822 88.63815296 75.20057822 88 72 C85.7566663 70.01669649 85.7566663 70.01669649 83 69 C81.90429688 68.43023437 80.80859375 67.86046875 79.6796875 67.2734375 C78.41278585 66.63797146 77.14447225 66.00531508 75.875 65.375 C75.18341797 65.03017578 74.49183594 64.68535156 73.77929688 64.33007812 C67.5913934 61.26092208 61.35047151 58.30800325 55.09838867 55.37231445 C49.09285728 52.54398201 43.14893152 49.60710982 37.25 46.5625 C33.50091161 44.65198374 30.04888883 43.34962961 26 42 Z M-24 134 C-24.09770695 136.46631271 -24.12996098 138.90458998 -24.12025452 141.37135315 C-24.12110894 142.15216608 -24.12196337 142.932979 -24.12284368 143.73745292 C-24.12450086 146.3739009 -24.11897326 149.01028632 -24.11352539 151.64672852 C-24.11324354 153.52862547 -24.1134012 155.41052254 -24.1139679 157.29241943 C-24.11425597 162.41823935 -24.10835767 167.54403608 -24.10139394 172.66985059 C-24.09516202 178.02037264 -24.09455673 183.37089517 -24.09336853 188.72142029 C-24.09025474 198.86098358 -24.0820407 209.00053614 -24.07201904 219.1400947 C-24.06085939 230.68040474 -24.05534783 242.22071528 -24.05032361 253.76102936 C-24.03985813 277.50735886 -24.02225776 301.25367883 -24 325 C-22.41250219 325.17136709 -20.82461422 325.3391221 -19.23657227 325.50537109 C-18.35236099 325.5991806 -17.46814972 325.69299011 -16.55714417 325.78964233 C-13.30477887 326.05719079 -10.18549457 325.9114739 -6.9375 325.625 C-5.28041016 325.48964844 -5.28041016 325.48964844 -3.58984375 325.3515625 C-1.07445514 325.27631031 -1.07445514 325.27631031 0 324 C0.09991336 321.5485919 0.13441839 319.12529839 0.12698364 316.67333984 C0.12932363 315.50930413 0.12932363 315.50930413 0.13171089 314.32175255 C0.13572396 311.70146198 0.13253007 309.08122858 0.12939453 306.4609375 C0.13074844 304.59051479 0.13252831 302.72009234 0.13470459 300.84967041 C0.13928021 295.75477704 0.13748884 290.65990382 0.1343255 285.56501007 C0.13180256 280.24565067 0.13413926 274.92629306 0.13571167 269.60693359 C0.13753356 260.67219735 0.13512655 251.73746936 0.13037109 242.80273438 C0.12492844 232.45706458 0.12669108 222.11141448 0.1321975 211.76574516 C0.13672808 202.90038827 0.13737945 194.03503732 0.13475883 185.16967964 C0.13319575 179.86724652 0.13300313 174.56482267 0.13629532 169.26239014 C0.13917324 164.27861351 0.13719981 159.29486241 0.13140106 154.31108856 C0.13007304 152.47641797 0.13046829 150.64174526 0.13266373 148.8070755 C0.13537358 146.31357421 0.13199616 143.82015607 0.12698364 141.32666016 C0.13032973 140.22313233 0.13032973 140.22313233 0.13374341 139.09731102 C0.41240979 135.76456513 0.41240979 135.76456513 -1 133 C-2.62257544 132.9008343 -4.24939831 132.86920223 -5.875 132.8671875 C-6.85984375 132.86589844 -7.8446875 132.86460937 -8.859375 132.86328125 C-10.41398437 132.86908203 -10.41398437 132.86908203 -12 132.875 C-13.03640625 132.87113281 -14.0728125 132.86726562 -15.140625 132.86328125 C-16.12546875 132.86457031 -17.1103125 132.86585938 -18.125 132.8671875 C-19.03507812 132.86831543 -19.94515625 132.86944336 -20.8828125 132.87060547 C-22.9852848 132.76439991 -22.9852848 132.76439991 -24 134 Z M26 133 C26 196.36 26 259.72 26 325 C38.39079968 325.61953998 50.67263085 326.20848762 63.0625 326.1875 C63.79225037 326.18656342 64.52200073 326.18562683 65.27386475 326.18466187 C88.31282341 326.1209802 110.80550182 325.70601178 128.30859375 308.765625 C133.98691547 302.72264042 137.37284224 297.13578882 139 289 C122.17 289 105.34 289 88 289 C88 237.85 88 186.7 88 134 C67.94778059 128.98694515 46.66935466 133 26 133 Z M114 141 C113.02288554 145.08473731 112.873269 148.90317003 112.87060547 153.09765625 C112.86885315 153.792612 112.86710083 154.48756775 112.86529541 155.20358276 C112.8609113 157.48991427 112.86380274 159.77616777 112.8671875 162.0625 C112.86651347 163.65763361 112.86554262 165.25276713 112.86428833 166.84790039 C112.86281602 170.18669617 112.86495093 173.52546515 112.86962891 176.86425781 C112.87532591 181.13802728 112.87204441 185.41173394 112.86605644 189.6855011 C112.86243825 192.97807282 112.86359521 196.27062973 112.86618423 199.5632019 C112.86685002 201.13882454 112.86603728 202.71444853 112.86370468 204.29006958 C112.86115751 206.4941971 112.86504782 208.69822372 112.87060547 210.90234375 C112.87140106 212.15523193 112.87219666 213.40812012 112.87301636 214.69897461 C112.98457702 217.59906931 113.3265656 220.18476931 114 223 C124.34299306 216.72525087 132.91762371 208.07264048 136 196 C139.26268465 180.33911366 136.53455268 166.78965301 129 153 C128.34 153 127.68 153 127 153 C126.77441406 152.42765625 126.54882812 151.8553125 126.31640625 151.265625 C124.63103667 148.36498893 122.57996343 146.80313706 119.9375 144.75 C119.03902344 144.04359375 118.14054688 143.3371875 117.21484375 142.609375 C115.32147172 140.90202795 115.32147172 140.90202795 114 141 Z M114 229 C112.9127825 232.52670901 112.87080835 235.80246498 112.8671875 239.48046875 C112.86589844 240.72634766 112.86460937 241.97222656 112.86328125 243.25585938 C112.86714844 244.55330078 112.87101563 245.85074219 112.875 247.1875 C112.87113281 248.49654297 112.86726562 249.80558594 112.86328125 251.15429688 C112.86457031 252.39630859 112.86585938 253.63832031 112.8671875 254.91796875 C112.86831543 256.06031982 112.86944336 257.2026709 112.87060547 258.37963867 C112.70243609 260.92622659 112.70243609 260.92622659 114 262 C115.92667507 262.08748207 117.85651861 262.10697334 119.78515625 262.09765625 C120.95498047 262.09443359 122.12480469 262.09121094 123.33007812 262.08789062 C124.56177734 262.07951172 125.79347656 262.07113281 127.0625 262.0625 C128.29806641 262.05798828 129.53363281 262.05347656 130.80664062 262.04882812 C133.87114117 262.03699608 136.93554721 262.02051173 140 262 C138.04962738 251.39554545 132.18199865 241.7381766 123.625 235.1796875 C119.65093035 232.13829705 119.65093035 232.13829705 115 231 C114.67 230.34 114.34 229.68 114 229 Z M166 289 C164.700625 293.393125 164.700625 293.393125 163.375 297.875 C161.10165554 305.24245871 158.56621656 311.71556793 154 318 C153.45859375 318.77085937 152.9171875 319.54171875 152.359375 320.3359375 C148.41552198 325.79223901 148.41552198 325.79223901 146 327 C146 327.66 146 328.32 146 329 C145.4225 329.2475 144.845 329.495 144.25 329.75 C141.47917453 331.15453063 141.47917453 331.15453063 138 335 C169.35 335 200.7 335 233 335 C231.68 333.02 230.36 331.04 229 329 C228.34 329 227.68 329 227 329 C226.7525 328.44828125 226.505 327.8965625 226.25 327.328125 C224.75765526 324.54863293 222.96327477 322.2185293 221 319.75 C220.29875 318.85796875 219.5975 317.9659375 218.875 317.046875 C218.25625 316.37140625 217.6375 315.6959375 217 315 C216.34 315 215.68 315 215 315 C214.75507813 314.43539063 214.51015625 313.87078125 214.2578125 313.2890625 C212.773105 310.58707928 210.98033665 308.62705 208.875 306.375 C204.87557516 302.03313652 201.20439958 297.53102976 197.62890625 292.8359375 C197.09136719 292.23007812 196.55382812 291.62421875 196 291 C195.34 291 194.68 291 194 291 C194 290.34 194 289.68 194 289 C184.76 289 175.52 289 166 289 Z " fill="#7173C6" transform="translate(202,26)"/>
<path d="M0 0 C0.33 0 0.66 0 1 0 C1 9.57 1 19.14 1 29 C-6.59 29 -14.18 29 -22 29 C-22.33 92.03 -22.66 155.06 -23 220 C-14.99305857 220 -6.98659339 219.57047096 1 219 C1 228.57 1 238.14 1 248 C0.67 247.34 0.34 246.68 0 246 C-1.32 246.33 -2.64 246.66 -4 247 C-26.275 246.505 -26.275 246.505 -49 246 C-49 165.48 -49 84.96 -49 2 C-32.83 2 -16.66 2 0 2 C0 1.34 0 0.68 0 0 Z " fill="#0F0F0F" transform="translate(201,131)"/>
<path d="M0 0 C11.26506024 4.5060241 11.26506024 4.5060241 15.25 7 C16.06726563 7.51046875 16.88453125 8.0209375 17.7265625 8.546875 C18.47679687 9.02640625 19.22703125 9.5059375 20 10 C20.64710938 10.39703125 21.29421875 10.7940625 21.9609375 11.203125 C23.34708108 12.07515899 24.68161511 13.0285585 26 14 C26 14.66 26 15.32 26 16 C26.57234375 16.23460937 27.1446875 16.46921875 27.734375 16.7109375 C38.59127102 22.88813696 45.70747091 39.46076254 49 51 C52.59493038 69.67496301 50.86040192 89.14362562 42 106 C41.4328125 106.825 40.865625 107.65 40.28125 108.5 C38.80119937 110.89198468 38.80119937 110.89198468 39.07421875 113.42578125 C40.24576183 116.68336307 41.91277035 119.29384872 43.8125 122.1875 C49.6760532 131.41431848 51.99437107 138.96904091 54 150 C66.87 150 79.74 150 93 150 C93 150.66 93 151.32 93 152 C93.66 152 94.32 152 95 152 C94.67 152.66 94.34 153.32 94 154 C93.34 153.67 92.68 153.34 92 153 C92 152.34 92 151.68 92 151 C61.64 151 31.28 151 0 151 C0 150.67 0 150.34 0 150 C8.91 150 17.82 150 27 150 C21.46347647 136.44116687 17.42454943 128.06746809 4.35546875 120.640625 C1.81999052 118.87462026 0.77955976 117.98554802 0 115 C1.01741928 110.57285122 3.13211501 108.81540935 6.75 106.25 C15.01641629 99.901297 20.3598912 90.97046239 22.75 80.8125 C23.60904171 67.71211387 23.40510472 56.68793695 17.0234375 45.03125 C16 43 16 43 16 41 C15.34 41 14.68 41 14 41 C12.82913065 39.56150337 11.66058193 38.12101046 10.5078125 36.66796875 C8.02061819 33.91659058 5.07741814 32.05161209 2 30 C1.34 31.32 0.68 32.64 0 34 C0 22.78 0 11.56 0 0 Z " fill="#0F0F10" transform="translate(315,138)"/>
<path d="M0 0 C8.58 0 17.16 0 26 0 C23.23845837 15.18847899 18.76886428 27.61577205 8 39 C7.34 39 6.68 39 6 39 C6 39.66 6 40.32 6 41 C4.46875 42.2890625 4.46875 42.2890625 2.5 43.625 C1.8503125 44.07101562 1.200625 44.51703125 0.53125 44.9765625 C0.0259375 45.31429687 -0.479375 45.65203125 -1 46 C0.485 46.99 0.485 46.99 2 48 C-36.61 48 -75.22 48 -115 48 C-115 38 -115 38 -114 37 C-112.41225428 36.91697945 -110.8208049 36.90363031 -109.23095703 36.91821289 C-107.70137863 36.92800926 -107.70137863 36.92800926 -106.14089966 36.93800354 C-105.0244809 36.94943893 -103.90806213 36.96087433 -102.7578125 36.97265625 C-100.38672036 36.98533029 -98.01562651 36.9976891 -95.64453125 37.00976562 C-91.91286891 37.03431923 -88.18129604 37.06198767 -84.44970703 37.09594727 C-45.24888281 38.12350423 -45.24888281 38.12350423 -11.9140625 19.98828125 C-7.94440906 15.72550994 -5.36933419 11.28080418 -3 6 C-2.01 4.02 -1.02 2.04 0 0 Z " fill="#0E0E10" transform="translate(342,314)"/>
<path d="M0 0 C0 9.24 0 18.48 0 28 C-8.05922451 27.89061982 -16.11833978 27.78034904 -24.17740631 27.66095734 C-27.93000851 27.60563601 -31.68261731 27.5520697 -35.43530273 27.50268555 C-39.04688586 27.45509165 -42.65837132 27.40275094 -46.26983833 27.34705925 C-47.65057519 27.32661306 -49.03133886 27.30790378 -50.41212273 27.29092598 C-52.33983314 27.2669322 -54.26745749 27.23629736 -56.19506836 27.20532227 C-57.29427109 27.18977798 -58.39347382 27.1742337 -59.52598572 27.15821838 C-62 27 -62 27 -63 26 C-63.09946453 24.23140807 -63.13080217 22.45888549 -63.1328125 20.6875 C-63.13410156 19.61242187 -63.13539063 18.53734375 -63.13671875 17.4296875 C-63.13091797 15.73199219 -63.13091797 15.73199219 -63.125 14 C-63.12886719 12.86820313 -63.13273438 11.73640625 -63.13671875 10.5703125 C-63.13542969 9.49523437 -63.13414062 8.42015625 -63.1328125 7.3125 C-63.13168457 6.31863281 -63.13055664 5.32476562 -63.12939453 4.30078125 C-63 2 -63 2 -62 1 C-60.10369616 0.87649632 -58.2028584 0.82206597 -56.30273438 0.79467773 C-55.08477173 0.77473251 -53.86680908 0.75478729 -52.61193848 0.73423767 C-51.27254366 0.7172502 -49.93314746 0.70037151 -48.59375 0.68359375 C-47.22993329 0.66302839 -45.86612302 0.64203204 -44.50231934 0.62062073 C-40.90571319 0.56532904 -37.30904877 0.51595652 -33.71234131 0.46777344 C-30.04905946 0.41764549 -26.38586375 0.36189311 -22.72265625 0.30664062 C-2.21415501 0 -2.21415501 0 0 0 Z " fill="#0F0F10" transform="translate(290,132)"/>
<path d="M0 0 C4.58982793 -0.04964866 9.17949754 -0.08583672 13.76953125 -0.10986328 C15.32912929 -0.11988557 16.8887087 -0.13350705 18.44824219 -0.15087891 C20.69731254 -0.1752941 22.94613322 -0.1865209 25.1953125 -0.1953125 C25.8861795 -0.20563507 26.57704651 -0.21595764 27.28884888 -0.22659302 C33.14598422 -0.22793314 37.3448148 0.56550616 41.8125 4.4375 C45.37687761 8.61291377 45.27625455 12.29830347 45.22265625 17.55859375 C44.85684348 21.56969871 43.03046232 23.74552413 40.5625 26.75 C36.71836122 29.82531102 31.67429682 29.14559974 26.98828125 29.1328125 C25.83503609 29.13424759 25.83503609 29.13424759 24.65849304 29.13571167 C23.03884804 29.13639056 21.41920028 29.13455663 19.79956055 29.13037109 C17.31097378 29.1249967 14.8225657 29.13033714 12.33398438 29.13671875 C10.76041627 29.13605835 9.18684827 29.13477797 7.61328125 29.1328125 C6.49147209 29.13584885 6.49147209 29.13584885 5.34700012 29.13894653 C0.11496623 29.11496623 0.11496623 29.11496623 -1 28 C-1.09974389 26.09715013 -1.1308063 24.19061747 -1.1328125 22.28515625 C-1.13410156 21.12435547 -1.13539063 19.96355469 -1.13671875 18.76757812 C-1.13091797 16.93356445 -1.13091797 16.93356445 -1.125 15.0625 C-1.13080078 13.23428711 -1.13080078 13.23428711 -1.13671875 11.36914062 C-1.13542969 10.20705078 -1.13414062 9.04496094 -1.1328125 7.84765625 C-1.13168457 6.77523682 -1.13055664 5.70281738 -1.12939453 4.59790039 C-1 2 -1 2 0 0 Z " fill="#0E0E0E" transform="translate(238,275)"/>
<path d="M0 0 C4.49987562 -0.08767743 8.999529 -0.14062009 13.5 -0.1875 C15.40265625 -0.22520508 15.40265625 -0.22520508 17.34375 -0.26367188 C24.279802 -0.31785978 29.7648884 -0.16632623 36 3 C40.54469411 7.77775535 41.35541519 11.0324717 41.28125 17.45703125 C40.86818756 21.19180418 39.49125668 23.23941828 37 26 C32.93461427 29.00799649 29.80934311 29.4273254 24.80078125 29.58203125 C24.12452194 29.6047258 23.44826263 29.62742035 22.75151062 29.65080261 C21.33055 29.69518615 19.90935666 29.73261016 18.48803711 29.76342773 C16.30811064 29.81259901 14.13021113 29.88808959 11.95117188 29.96679688 C4.14742807 30.19227009 4.14742807 30.19227009 1 30 C-1 28 -1 28 -1.24291992 25.41796875 C-1.23881104 24.35191406 -1.23470215 23.28585938 -1.23046875 22.1875 C-1.22853516 21.02992188 -1.22660156 19.87234375 -1.22460938 18.6796875 C-1.21236328 17.46539062 -1.20011719 16.25109375 -1.1875 15 C-1.18685547 13.78570312 -1.18621094 12.57140625 -1.18554688 11.3203125 C-1.14024712 2.28049424 -1.14024712 2.28049424 0 0 Z " fill="#0E0E0E" transform="translate(238,205)"/>
<path d="M0 0 C0.33 0 0.66 0 1 0 C1 83.16 1 166.32 1 252 C50.13481983 251.93870301 50.13481983 251.93870301 99.26953125 251.83984375 C105.88883393 251.82375086 112.50813714 251.80790729 119.12744141 251.79248047 C119.9570914 251.79053653 120.7867414 251.78859259 121.6415323 251.78658974 C135.04484646 251.75554834 148.44814349 251.73858875 161.85148683 251.72680578 C175.60154601 251.7144055 189.35151511 251.6869296 203.10151744 251.64538693 C211.5896392 251.62021923 220.07761165 251.6068851 228.56577125 251.60857043 C234.3822603 251.60860013 240.19859697 251.59401877 246.01502666 251.56783572 C249.37358435 251.55315194 252.73156563 251.54718004 256.09018898 251.55419731 C259.72812743 251.56078795 263.36514507 251.54303386 267.00299072 251.51898193 C268.06913203 251.52674235 269.13527335 251.53450277 270.23372197 251.54249835 C275.76615073 251.57579786 275.76615073 251.57579786 280.56231308 249.15506363 C281.70852273 247.43691853 282.85433 245.71850499 284 244 C284.33 244.99 284.66 245.98 285 247 C285.66 247 286.32 247 287 247 C288.6875 248.8125 288.6875 248.8125 290 251 C289.67 251.99 289.34 252.98 289 254 C193.63 253.67 98.26 253.34 0 253 C0 169.51 0 86.02 0 0 Z " fill="#59598C" transform="translate(202,134)"/>
<path d="M0 0 C1.65 0.33 3.3 0.66 5 1 C4.67 2.65 4.34 4.3 4 6 C-64.97 6 -133.94 6 -205 6 C-205 5.67 -205 5.34 -205 5 C-136.69 4.34 -68.38 3.68 2 3 C1.01 1.515 1.01 1.515 0 0 Z " fill="#7777B6" transform="translate(432,357)"/>
<path d="M0 0 C0.33 0.66 0.66 1.32 1 2 C52.48 1.505 52.48 1.505 105 1 C105.495 2.485 105.495 2.485 106 4 C71.02 4 36.04 4 0 4 C0 2.68 0 1.36 0 0 Z " fill="#6665A2" transform="translate(290,311)"/>
<path d="M0 0 C0.99 0.495 0.99 0.495 2 1 C2 1.66 2 2.32 2 3 C2.66 3 3.32 3 4 3 C5.6875 4.8125 5.6875 4.8125 7 7 C6.67 7.99 6.34 8.98 6 10 C-61.815 9.505 -61.815 9.505 -131 9 C-131 8.67 -131 8.34 -131 8 C-130.3543169 7.99853344 -129.7086338 7.99706688 -129.04338455 7.99555588 C-113.33616478 7.95851242 -97.62920405 7.89953074 -81.92216873 7.81609726 C-74.32636407 7.77627912 -66.73066342 7.74390082 -59.13476562 7.72900391 C-52.51456008 7.71600166 -45.89458314 7.68907389 -39.27450633 7.64538693 C-35.76880551 7.62273955 -32.26338698 7.60709125 -28.75760651 7.60811615 C-24.84500401 7.60899917 -20.93297947 7.57879372 -17.02050781 7.54589844 C-15.85669586 7.5509288 -14.69288391 7.55595917 -13.49380493 7.56114197 C-11.89528183 7.54027275 -11.89528183 7.54027275 -10.26446533 7.51898193 C-8.8762451 7.51345118 -8.8762451 7.51345118 -7.45998001 7.50780869 C-4.22711086 6.84045406 -3.04391555 5.54101065 -1 3 C-0.67 2.01 -0.34 1.02 0 0 Z " fill="#575984" transform="translate(485,378)"/>
<path d="M0 0 C1.65 0.33 3.3 0.66 5 1 C4.67 2.65 4.34 4.3 4 6 C-26.01816665 6.11754792 -55.99736836 6.03419412 -86 5 C-86 4.67 -86 4.34 -86 4 C-42.44 3.505 -42.44 3.505 2 3 C1.01 1.515 1.01 1.515 0 0 Z " fill="#63639F" transform="translate(432,357)"/>
<path d="M0 0 C2.16874252 0.50603992 3.99967627 0.99983813 6 2 C6.17179504 9.76549954 6.33090885 17.53119299 6.48217773 25.29711914 C6.53391574 27.92580786 6.5899945 30.55429592 6.64819336 33.18286133 C7.04397757 51.16523093 6.89076254 69.0337421 6 87 C5.67 87 5.34 87 5 87 C3.78339582 59.00516131 3.89281108 31.01592772 4 3 C2.68 2.67 1.36 2.34 0 2 C0 1.34 0 0.68 0 0 Z " fill="#6E6FA3" transform="translate(309,78)"/>
<path d="M0 0 C1.32 0.33 2.64 0.66 4 1 C3.34 1.66 2.68 2.32 2 3 C1.78294363 5.40679241 1.68865143 7.70219803 1.68115234 10.11181641 C1.67110672 10.84362625 1.6610611 11.5754361 1.65071106 12.329422 C1.61976764 14.75346068 1.60281326 17.17738838 1.5859375 19.6015625 C1.56723479 21.28023237 1.54766206 22.95889275 1.5272522 24.63754272 C1.47583005 29.05979835 1.43625848 33.48208449 1.39910889 37.90447998 C1.35913226 42.41556407 1.30801108 46.92652013 1.2578125 51.4375 C1.16093393 60.29157686 1.07656751 69.14572584 1 78 C0.67 78 0.34 78 0 78 C0 52.26 0 26.52 0 0 Z " fill="#625F9B" transform="translate(202,26)"/>
<path d="M0 0 C2.16874252 0.50603992 3.99967627 0.99983813 6 2 C5.67 19.49 5.34 36.98 5 55 C4.67 55 4.34 55 4 55 C4 37.84 4 20.68 4 3 C2.68 2.67 1.36 2.34 0 2 C0 1.34 0 0.68 0 0 Z " fill="#7070B5" transform="translate(309,78)"/>
<path d="M0 0 C0.66 0.33 1.32 0.66 2 1 C2 1.66 2 2.32 2 3 C2.66 3 3.32 3 4 3 C5.6875 4.8125 5.6875 4.8125 7 7 C6.67 7.99 6.34 8.98 6 10 C2.37 9.01 -1.26 8.02 -5 7 C-3.68 5.68 -2.36 4.36 -1 3 C-0.67 2.01 -0.34 1.02 0 0 Z " fill="#6163A3" transform="translate(485,378)"/>
<path d="M0 0 C4.25581144 3.12927312 7.9199685 6.70277393 11 11 C11 11.66 11 12.32 11 13 C11.66 13 12.32 13 13 13 C13 13.66 13 14.32 13 15 C11.68 14.67 10.36 14.34 9 14 C9 13.34 9 12.68 9 12 C8.01 12 7.02 12 6 12 C6 11.34 6 10.68 6 10 C5.34 10 4.68 10 4 10 C1.1605948 6.32547562 0 4.73113419 0 0 Z " fill="#63639D" transform="translate(416,299)"/>
<path d="M0 0 C0.66 0 1.32 0 2 0 C2.11624638 8.73139464 1.89115181 17.31126982 1 26 C0.34 26 -0.32 26 -1 26 C-1.12852505 17.27457699 -0.79645684 8.68991301 0 0 Z " fill="#6867A2" transform="translate(314,245)"/>
<path d="M0 0 C4.01303508 1.556846 7.9092928 3.31138857 11.8125 5.125 C12.97394531 5.66382812 14.13539063 6.20265625 15.33203125 6.7578125 C16.21246094 7.16773437 17.09289062 7.57765625 18 8 C14.23375329 9.25541557 12.62811066 8.37061958 9 7 C9 6.34 9 5.68 9 5 C7.02 5.99 7.02 5.99 5 7 C3.29115995 5.37660195 1.62553283 3.70680947 0 2 C0 1.34 0 0.68 0 0 Z " fill="#62629A" transform="translate(279,63)"/>
<path d="M0 0 C1.65 0.33 3.3 0.66 5 1 C4.67 2.65 4.34 4.3 4 6 C-0.29 5.67 -4.58 5.34 -9 5 C-9 4.67 -9 4.34 -9 4 C-3.555 3.505 -3.555 3.505 2 3 C1.34 2.01 0.68 1.02 0 0 Z " fill="#5151A1" transform="translate(432,357)"/>
<path d="M0 0 C3.28788824 3.11016455 5.83735988 6.01618925 8 10 C6.35 9.67 4.7 9.34 3 9 C2.67 7.35 2.34 5.7 2 4 C1.34 4 0.68 4 0 4 C0 2.68 0 1.36 0 0 Z " fill="#61629D" transform="translate(473,364)"/>
<path d="M0 0 C2 2 2 2 2.5 4.0625 C2.665 4.701875 2.83 5.34125 3 6 C3.66 6.33 4.32 6.66 5 7 C4.67 8.32 4.34 9.64 4 11 C4 10.34 4 9.68 4 9 C3.34 9 2.68 9 2 9 C0.7109375 7.46875 0.7109375 7.46875 -0.625 5.5 C-1.07101562 4.8503125 -1.51703125 4.200625 -1.9765625 3.53125 C-2.31429688 3.0259375 -2.65203125 2.520625 -3 2 C-2.01 1.34 -1.02 0.68 0 0 Z " fill="#5C5B9E" transform="translate(427,346)"/>
<path d="M0 0 C3.63 1.65 7.26 3.3 11 5 C6.99998285 6.00000429 4.94476647 5.80688405 1 5 C0.67 3.35 0.34 1.7 0 0 Z " fill="#605F97" transform="translate(298,72)"/>
<path d="M0 0 C3.77545388 1.09068668 6.47043472 1.9083091 9 5 C3.375 5.25 3.375 5.25 0 3 C0 2.01 0 1.02 0 0 Z " fill="#585797" transform="translate(232,40)"/>
<path d="M0 0 C2.64752004 2.57784846 4.94432065 4.91648098 7 8 C6.01 8.495 6.01 8.495 5 9 C4.34 8.34 3.68 7.68 3 7 C2.34 6.67 1.68 6.34 1 6 C0.375 2.9375 0.375 2.9375 0 0 Z " fill="#62629A" transform="translate(431,316)"/>
<path d="M0 0 C1.32 0.66 2.64 1.32 4 2 C2.625 3.5 2.625 3.5 1 5 C0.34 5 -0.32 5 -1 5 C-1.33 4.01 -1.66 3.02 -2 2 C-1.34 1.34 -0.68 0.68 0 0 Z " fill="#6E6AB8" transform="translate(266,57)"/>
<path d="M0 0 C1.32 0.33 2.64 0.66 4 1 C3.34 1.66 2.68 2.32 2 3 C1.53993654 5.20250992 1.53993654 5.20250992 1.375 7.625 C1.30023438 8.44226562 1.22546875 9.25953125 1.1484375 10.1015625 C1.07496094 11.04128906 1.07496094 11.04128906 1 12 C0.67 12 0.34 12 0 12 C0 8.04 0 4.08 0 0 Z " fill="#5E5C8C" transform="translate(202,26)"/>
</svg>
